# xmcd CD database file
# Generated: mer déc 25 17:44:21 2002 by KSCD
# 
# Track frame offsets:
#       182
#       16912
#       31185
#       45237
#       66182
#       80820
#       105635
#       124930
#       156215
#       176282
#       196122
#       210742
#
# Disc length: 2892 seconds
#
# Revision: 1
# Processed by: cddbd v1.4PL0 Copyright (c) Steve Scherf et al.
# Submitted via: Kscd 1.3.3
#
DISCID=940b4a0c
DTITLE=Beti Alai - Alaiak
DYEAR=1900
DGENRE=
TTITLE0=Saia Euskara
TTITLE1=Beti egarri
TTITLE2=Gaurko erromeriari
TTITLE3=Euskal popurri
TTITLE4=Guk Euskaraz
TTITLE5=Kalinka
TTITLE6=Gora ta gora beti
TTITLE7=Nafarroa
TTITLE8=Urrundun nintzan
TTITLE9=Itsas gizoneri
TTITLE10=bagare
TTITLE11=Euskal Herriko
EXTD=Groupe Musico Vocal\n
EXTT0=
EXTT1=
EXTT2=
EXTT3=
EXTT4=
EXTT5=
EXTT6=
EXTT7=
EXTT8=
EXTT9=
EXTT10=
EXTT11=
PLAYORDER=
